<svg xmlns="http://www.w3.org/2000/svg" xmlns:xlink="http://www.w3.org/1999/xlink" version="1.1" x="0px" y="0px" viewBox="0 0 100 100" enable-background="new 0 0 100 100" xml:space="preserve"><path fill="#000000" d="M8.824,45.838l0.561,0.233l0.527,0.176l0.576,0.133l0.605,0.094l0.533,0.044h0.441l0.535-0.045l0.424-0.084  l0.443-0.178l0.469-0.188c0.002-0.001,0.004,0.001,0.006,0s0.004-0.003,0.006-0.004l1.312-0.469c0.01-0.004,0.02,0.004,0.031,0.001  c0.012-0.002,0.016-0.015,0.029-0.017l1.406-0.188c0.012-0.001,0.02,0.009,0.031,0.009c0.014,0,0.02-0.012,0.033-0.01l1.641,0.141  c0.01,0.001,0.014,0.01,0.023,0.012s0.018-0.006,0.027-0.004l1.641,0.422c0.01,0.003,0.014,0.014,0.023,0.018  c0.008,0.003,0.018-0.003,0.025,0.001l1.641,0.75c0.004,0.002,0.006,0.008,0.01,0.01c0.004,0.003,0.01-0.001,0.014,0.002  l1.734,0.984c0.006,0.004,0.006,0.012,0.012,0.016s0.014,0.001,0.02,0.005l1.688,1.266c0.006,0.004,0.004,0.011,0.01,0.015  c0.004,0.005,0.012,0.002,0.018,0.007l1.594,1.5c0.004,0.004,0.002,0.01,0.006,0.014c0.002,0.004,0.008,0.002,0.012,0.006  l1.547,1.734c0.002,0.004,0,0.009,0.004,0.012c0.004,0.004,0.01,0.004,0.012,0.008l1.406,1.875c0.004,0.004,0.002,0.01,0.004,0.014  c0.002,0.003,0.008,0.003,0.01,0.007l1.266,2.016c0.002,0.002,0,0.005,0.002,0.007c0,0.003,0.004,0.003,0.006,0.005l1.051,1.859  l0.852-0.64c0.006-0.004,0.012-0.001,0.018-0.005c0.006-0.003,0.006-0.011,0.012-0.015l32.939-19.074l-0.891-1.7l-1.299-1.947  l-1.396-1.956l-1.479-1.662l-1.666-1.481l-1.711-1.248l-1.607-0.965l-1.74-0.733l-1.553-0.41l-1.486-0.136l-1.352,0.181  l-1.344,0.448l-0.305,0.174c-0.014,0.008-0.027,0.006-0.041,0.011c-0.008,0.004-0.012,0.013-0.02,0.016l-0.609,0.188  c-0.008,0.002-0.016,0.002-0.023,0.004c-0.002,0-0.004,0.003-0.006,0.003l-0.469,0.094l-0.469,0.094  c-0.02,0.004-0.039,0.006-0.059,0.006h-0.609c-0.016,0-0.031-0.001-0.049-0.004l-0.562-0.094c-0.002,0-0.002-0.001-0.002-0.001  c-0.004-0.001-0.006-0.001-0.008-0.001l-0.469-0.094c0,0,0-0.001-0.002-0.001c-0.004-0.001-0.008-0.001-0.012-0.002l-0.562-0.141  c0,0-0.002,0-0.002-0.001l-0.602-0.139c-0.006-0.001-0.008-0.008-0.014-0.01c-0.016-0.004-0.031-0.003-0.045-0.01l-0.609-0.281  c0,0,0-0.001-0.002-0.001l-0.646-0.277c-0.004-0.002-0.004-0.006-0.008-0.008c-0.006-0.002-0.012-0.001-0.018-0.004l-0.461-0.248  L8.086,45.46l0.287,0.17L8.824,45.838z"/><path fill="#000000" d="M53.445,70.931c0.002,0.002,0.004,0.001,0.006,0.003l0.562,0.562l0.549,0.55l0.594,0.456l0.594,0.456  l0.561,0.375l0.408,0.272l33.873-19.514l-0.137-0.073c-0.004-0.002-0.004-0.008-0.008-0.011c-0.006-0.003-0.014-0.002-0.02-0.006  l-0.609-0.422c-0.004-0.003-0.004-0.009-0.008-0.012s-0.01-0.001-0.014-0.005l-0.562-0.469l-0.562-0.469c0,0,0-0.001-0.002-0.001  l-0.609-0.516c-0.004-0.003-0.002-0.009-0.006-0.013c-0.004-0.003-0.01-0.002-0.012-0.005l-0.609-0.609l-0.562-0.562  c-0.004-0.004-0.004-0.011-0.006-0.015c-0.01-0.009-0.02-0.013-0.027-0.022l-0.463-0.649l-0.551-0.643  c-0.004-0.004-0.002-0.009-0.006-0.013c-0.004-0.007-0.012-0.01-0.018-0.017l-0.469-0.702l-0.455-0.594  c-0.004-0.004-0.002-0.009-0.004-0.013c-0.006-0.007-0.014-0.01-0.018-0.018l-0.467-0.793l-1.299-1.947l-1.48-1.853l-1.539-1.632  l-1.611-1.473l-1.764-1.207c0,0,0,0-0.002-0.001l-1.557-0.962l-1.643-0.639l-1.549-0.41l-1.623-0.045l-1.338,0.223l-1.225,0.544  l-1.152,0.646L35.682,56.596l0.205-0.034c0.008-0.003,0.018-0.002,0.025-0.004l0.027-0.005c0.004-0.001,0.006,0.003,0.01,0.002  c0.021-0.002,0.043-0.009,0.068-0.005l1.5,0.141c0.006,0,0.008,0.007,0.014,0.008c0.006,0,0.01-0.005,0.016-0.004l1.688,0.328  c0.01,0.002,0.016,0.014,0.025,0.018c0.01,0.003,0.02-0.004,0.031,0l1.594,0.656c0.006,0.002,0.006,0.01,0.012,0.013  s0.014-0.001,0.02,0.002l1.781,0.984c0.006,0.004,0.006,0.013,0.012,0.017c0.008,0.004,0.016,0,0.021,0.005l1.641,1.219  c0.004,0.004,0.004,0.011,0.008,0.014c0.004,0.004,0.012,0.002,0.016,0.006l1.641,1.5c0,0.001,0,0.004,0.002,0.005  s0.004,0.001,0.004,0.002l1.641,1.594c0.006,0.006,0.004,0.016,0.01,0.022s0.016,0.006,0.021,0.013l1.406,1.875  c0.004,0.004,0,0.009,0.004,0.014c0.002,0.003,0.008,0.003,0.01,0.007l1.266,2.015c0,0,0,0,0.002,0.001l0.469,0.75v0.001  l0.457,0.687l0.459,0.644l0.596,0.64c0.004,0.005,0.002,0.013,0.006,0.019c0.006,0.006,0.014,0.005,0.018,0.011l0.453,0.633  l0.584,0.54C53.443,70.927,53.443,70.93,53.445,70.931z"/><polygon fill="#000000" points="7.482,45.115 41.256,25.624 40.316,25.06 40.254,25.039 40.207,25.039 40.193,25.039 6.369,44.524   "/><path fill="#000000" d="M5.869,45.431l0.098,0.097l0.141,0.141c0.008,0.008,0.004,0.02,0.012,0.028  c0.006,0.009,0.02,0.008,0.025,0.018l0.055,0.082L28.486,58.61l0.246-0.147l-0.451-0.638L11.09,47.921  c-0.002-0.001-0.002,0-0.004-0.001l-2.994-1.759l-0.119-0.056c-0.006-0.002-0.006-0.009-0.01-0.011  c-0.008-0.004-0.016-0.002-0.021-0.006l-0.609-0.375l-1.484-0.788c-0.02-0.011-0.023-0.034-0.039-0.049  c-0.002,0.02-0.016,0.032-0.021,0.051c-0.008,0.026,0,0.056-0.016,0.081l0.018,0.034c0.01,0.022,0,0.046,0.004,0.07  c0.006,0.022,0.027,0.038,0.027,0.063v0.13L5.869,45.431z"/><polygon fill="#000000" points="31.031,59.951 31.564,60.396 32.293,60.806 32.295,60.809 32.297,60.809 32.84,61.126 33.5,61.39   34.064,61.521 34.596,61.564 34.865,61.564 29.725,58.646 29.873,58.793 30.482,59.402 "/><polygon fill="#000000" points="25.047,55.04 23.275,54.015 23.273,54.011 23.268,54.01 21.537,52.935 19.818,52.005 19.818,52.005   18.049,51.073 18.047,51.073 16.441,50.312 26.961,56.373 26.793,56.189 "/><path fill="#000000" d="M36.865,61.213c0.033,0.004,0.064-0.01,0.096,0.005l1.594,0.75c0.002,0.002,0.002,0.006,0.006,0.007  c0.002,0.001,0.006-0.001,0.01,0.001l1.547,0.844v0.001l1.635,0.84c0.004,0.002,0.004,0.007,0.008,0.01  c0.004,0.002,0.01-0.001,0.014,0.002l1.5,0.938c0,0.001,0,0.001,0,0.002h0.002l1.688,1.078c0.002,0.001,0,0.004,0.002,0.005  s0.004,0,0.006,0.001l1.5,1.031c0.002,0.001,0.002,0.002,0.002,0.002c0,0.001,0.002,0,0.004,0.001l1.641,1.172  c0.002,0.002,0.002,0.005,0.004,0.007s0.004,0.001,0.006,0.002l1.547,1.219c0.002,0.001,0.002,0.003,0.002,0.004  c0.002,0.001,0.004,0.001,0.006,0.002l1.479,1.247l2.131,1.24l-0.256-0.256l-0.609-0.562c-0.006-0.005-0.004-0.013-0.008-0.018  c-0.01-0.011-0.023-0.016-0.033-0.028l-0.459-0.644l-0.594-0.64c-0.004-0.003-0.002-0.009-0.006-0.013  c-0.006-0.007-0.014-0.009-0.02-0.017l-0.469-0.656c0-0.001,0-0.003,0-0.005c-0.002-0.002-0.004-0.002-0.006-0.004l-0.469-0.703  c0-0.001,0-0.002,0-0.003c-0.002-0.002-0.004-0.002-0.004-0.004l-0.469-0.75c-0.002-0.001,0-0.001-0.002-0.002l-1.254-2  l-1.389-1.851l-1.615-1.569l-1.629-1.489l-1.613-1.197l-1.752-0.969l-1.545-0.636l-1.648-0.321l-1.445-0.135l-1.332,0.222  l-1.244,0.533l-1.098,0.823c-0.006,0.005-0.016,0.003-0.021,0.007s-0.006,0.011-0.01,0.014c-0.047,0.026-0.098,0.039-0.148,0.039  c-0.049,0-0.096-0.014-0.141-0.037c-0.014-0.008-0.023-0.021-0.035-0.03c-0.023-0.017-0.047-0.029-0.064-0.053  c-0.004-0.005,0-0.011-0.004-0.016c-0.004-0.007-0.012-0.01-0.016-0.017l-1.215-2.147l-1.254-1.999l-1.398-1.862L26.5,50.926  l-1.584-1.49l-1.654-1.241l-1.709-0.971l-1.598-0.73l-1.6-0.41l-1.576-0.136l-1.35,0.18l-1.27,0.454l-0.467,0.187l-0.469,0.188  c-0.014,0.005-0.027,0.005-0.041,0.008c-0.004,0.001-0.006,0.007-0.012,0.008l-0.469,0.094c-0.01,0.002-0.02,0.002-0.029,0.003  c-0.002,0-0.002,0.002-0.004,0.002l-0.562,0.047c-0.008,0.001-0.018,0.001-0.025,0.001h-0.469c-0.008,0-0.016,0-0.025-0.001  l-0.562-0.047c0,0,0-0.001-0.002-0.001c-0.006,0-0.012,0-0.018-0.001l-0.25-0.038l0.615,0.361l1.76,0.694  c0.002,0.001,0.004,0.005,0.006,0.007c0.002,0.001,0.006-0.001,0.008,0l1.641,0.75c0.002,0.001,0.002,0.002,0.002,0.003  c0.002,0,0.004,0,0.004,0l1.73,0.842h0.002l1.781,0.844c0.002,0.001,0.002,0.004,0.006,0.006c0.002,0,0.004-0.001,0.006,0  l1.781,0.938v0.002c0.002,0,0.002,0,0.002,0l1.734,0.938c0.004,0.002,0.004,0.006,0.006,0.007c0.004,0.002,0.008,0,0.01,0.002  l1.727,1.073l1.781,1.031c0.004,0.002,0.004,0.006,0.006,0.007c0.002,0.002,0.006,0,0.01,0.002l1.781,1.172  c0.012,0.008,0.012,0.023,0.021,0.032s0.025,0.006,0.035,0.017l1.467,1.605l7.127,4.046l0.117-0.023h0.002l0.844-0.188  C36.803,61.188,36.832,61.209,36.865,61.213z"/><path fill="#000000" d="M92.701,55.388l-0.098-0.131l-0.123-0.062c-0.004-0.002-0.004-0.006-0.008-0.008  c-0.004-0.003-0.01-0.001-0.014-0.004l-1.254-0.753L56.857,74.218h-0.002c-0.002,0.001-0.004,0.002-0.006,0.003  c-0.043,0.024-0.092,0.037-0.143,0.037s-0.104-0.014-0.148-0.039c0-0.001-0.002,0-0.002-0.001l-5.719-3.328  c-0.008-0.005-0.01-0.016-0.016-0.021c-0.01-0.006-0.02-0.003-0.027-0.01l-1.5-1.266c0,0,0,0,0-0.001l-1.527-1.203l0,0l-1.641-1.172  c0,0,0,0-0.002-0.001l-1.488-1.024l-1.68-1.072c-0.002-0.001-0.002-0.001-0.002-0.001l-1.5-0.937l-1.619-0.833  c-0.002-0.001-0.002-0.001-0.002-0.002c-0.002-0.001-0.004,0-0.004-0.001l-1.541-0.84l-1.492-0.702L36.1,61.96l-0.045,0.027v0.4  l0.523,0.848l21.826,12.619c0.004,0.002,0.004,0.006,0.006,0.008c0.004,0.002,0.008,0,0.01,0.002l0.066,0.044h0.002h0.014  l34.369-19.8l0.006-0.008v-0.002v-0.188v-0.188v-0.069l-0.051-0.101L92.701,55.388z"/></svg>